<svg height="512" viewBox="0 0 512 512" width="512" xmlns="http://www.w3.org/2000/svg"><path d="m320 216h-12.692l10.344-10.343a8 8 0 0 0 -11.313-11.313l-24 24a8 8 0 0 0 5.661 13.656h32a8 8 0 0 0 0-16z"/><path d="m367.992 95.948h-.047c-69.6.028-126.4 55.914-127.918 125.2l-30.278 37.852a8 8 0 0 0 2.668 12.153l27.583 13.788v19.059a8 8 0 0 0 8 8h16a16 16 0 0 1 0 32 16.015 16.015 0 0 0 -16 16 7.959 7.959 0 0 0 .411 2.531l8 24a8 8 0 0 0 7.589 5.469h56v80a8 8 0 0 0 8 8h120a8 8 0 0 0 8-8v-86.4l14.75-35.4a326.569 326.569 0 0 0 25.25-126.252 128 128 0 0 0 -128-128zm87.988 248.091-15.367 36.879a8.02 8.02 0 0 0 -.613 3.082v80h-104v-76.259l45.121-37.6a7.994 7.994 0 0 0 2.879-6.141v-24a8 8 0 0 0 -16 0v20.253l-42.9 35.747h-55.34l-5.332-16a32 32 0 0 0 -.428-64h-8v-16a8 8 0 0 0 -4.421-7.156l-23.149-11.574 25.816-32.274a8.112 8.112 0 0 0 1.754-5.048 112.14 112.14 0 0 1 111.958-112h.039a112 112 0 0 1 112 112 310.7 310.7 0 0 1 -24.017 120.091z"/><path d="m216 312h-40a16 16 0 0 1 0-32 8 8 0 0 0 0-16 32 32 0 0 0 0 64h40a8 8 0 0 0 0-16z"/><path d="m176 360h40a8 8 0 0 0 0-16h-40a32 32 0 0 0 0 64 8 8 0 0 0 0-16 16 16 0 0 1 0-32z"/><path d="m128 472v-119.149c0-12.125-8.609-22.672-20.027-24.531a24.143 24.143 0 0 0 -10.164.492l5.015-65.211a21.923 21.923 0 0 0 -41.824-10.754l-36.289 79.84a7.99 7.99 0 0 0 -.711 3.313v56a7.971 7.971 0 0 0 .648 3.152l23.352 54.484v22.364a8 8 0 0 0 8 8h64a8 8 0 0 0 8-8zm-16-8h-48v-16a7.976 7.976 0 0 0 -.648-3.153l-23.357-54.492v-52.625l35.57-78.262a6.132 6.132 0 0 1 9.739-1.574 5.856 5.856 0 0 1 1.562 4.48l-6.637 86.266a24.024 24.024 0 0 0 -.229 3.36v40a8 8 0 0 0 16 0v-39.7l.137-1.784a8.015 8.015 0 0 1 9.265-6.41c3.7.605 6.6 4.445 6.6 8.742z"/><path d="m79.995 111.995h16v16h-16z"/><path d="m79.995 79.995h16v16h-16z"/><path d="m63.995 95.995h16v16h-16z"/><path d="m95.995 95.995h16v16h-16z"/><path d="m239.995 63.995h16v16h-16z"/><path d="m239.995 31.995h16v16h-16z"/><path d="m223.995 47.995h16v16h-16z"/><path d="m255.995 47.995h16v16h-16z"/><path d="m167.995 159.995h16v16h-16z"/><path d="m167.995 111.995h16v16h-16z"/><path d="m143.995 135.995h16v16h-16z"/><path d="m191.995 135.995h16v16h-16z"/></svg>