<svg height="512pt" viewBox="0 0 512.00011 512" width="512pt" xmlns="http://www.w3.org/2000/svg"><path d="m362.203125 231.9375c-2.878906-34.121094-31.226563-61.101562-65.914063-61.808594-5.601562-38.753906-39.03125-68.621094-79.308593-68.621094-44.183594 0-80.132813 35.949219-80.132813 80.140626v21.5625c-36.785156 7.039062-64.675781 39.457031-64.675781 78.265624v5.722657c0 43.933593 35.742187 79.679687 79.675781 79.679687h220.484375c37.199219 0 67.464844-30.265625 67.464844-67.46875s-30.265625-67.472656-67.464844-67.472656zm47.597656 67.46875c0 20.660156-16.808593 37.472656-37.46875 37.472656h-220.488281c-27.390625 0-49.675781-22.289062-49.675781-49.683594v-5.71875c0-27.394531 22.285156-49.683593 49.675781-49.683593h15v-50.144531c0-27.648438 22.492188-50.140626 50.136719-50.140626 27.648437 0 50.136719 22.492188 50.136719 50.140626v18.464843h27.78125c20.707031 0 37.550781 16.847657 37.550781 37.558594v24.265625h39.882812c20.660157 0 37.46875 16.808594 37.46875 37.46875zm0 0"/><path d="m38.46875 194.839844c15.175781-54.035156 49.71875-100.253906 97.277344-130.148438 44.042968-27.6875 94.578125-39.160156 146.136718-33.171875 37.378907 4.339844 73.148438 18.035157 103.699219 39.355469l-23.664062.816406 1.03125 29.980469 77.921875-2.683594-2.820313-76.964843-29.976562 1.097656 1.015625 27.738281c-35.945313-26.757813-78.824219-43.925781-123.75-49.140625-28.328125-3.289062-56.753906-1.855469-84.484375 4.261719-28.699219 6.328125-55.976563 17.535156-81.074219 33.3125-53.867188 33.859375-93.003906 86.222656-110.191406 147.433593-17.066406 60.773438-11.21875 125.324219 16.460937 181.757813l26.933594-13.214844c-24.429687-49.796875-29.582031-106.773437-14.515625-160.429687zm0 0"/><path d="m478.800781 130.046875-26.105469 14.78125c28.660157 50.621094 36.625 109.648437 22.433594 166.214844-14.238281 56.738281-49.363281 105.136719-98.90625 136.277343-45.742187 28.753907-100.304687 40.152344-153.628906 32.09375-41.492188-6.273437-80.246094-23.9375-111.949219-50.613281l27.957031-.964843-1.03125-29.980469-77.925781 2.683593 2.824219 76.964844 29.976562-1.097656-.898437-24.46875c35.871094 30.117188 79.679687 50.054688 126.5625 57.140625 12.664063 1.910156 25.382813 2.855469 38.066406 2.855469 47.832031 0 95.042969-13.460938 136.007813-39.210938 56.121094-35.277344 95.910156-90.101562 112.039062-154.378906 16.078125-64.070312 7.050782-130.941406-25.421875-188.296875zm0 0"/><path d="m207.308594 250.167969c4.988281 0 8.867187 2.375 12.117187 6.492187l11.796875-10.53125c-5.464844-7.125-14.015625-11.085937-24.863281-11.085937-17.816406 0-30.882813 11.957031-30.882813 28.984375 0 17.023437 13.066407 28.984375 30.882813 28.984375 10.847656 0 19.398437-3.960938 24.863281-11.089844l-11.796875-10.53125c-3.25 4.117187-7.128906 6.496094-12.117187 6.496094-7.761719 0-12.988282-5.386719-12.988282-13.859375s5.226563-13.859375 12.988282-13.859375zm0 0"/><path d="m272.398438 235.042969c-18.050782 0-31.277344 12.195312-31.277344 28.984375 0 16.789062 13.222656 28.984375 31.277344 28.984375 18.054687 0 31.28125-12.195313 31.28125-28.984375 0-16.789063-13.226563-28.984375-31.28125-28.984375zm0 42.84375c-6.886719 0-12.429688-5.226563-12.429688-13.859375 0-8.632813 5.542969-13.859375 12.429688-13.859375 6.890624 0 12.433593 5.226562 12.433593 13.859375 0 8.632812-5.542969 13.859375-12.433593 13.859375zm0 0"/><path d="m333.699219 300.355469c4.746093-4.277344 5.582031-7.164063 5.582031-10.371094 0-6.191406-5.441406-10.191406-13.164062-10.191406-7.027344 0-11.722657 3.070312-14.097657 7.539062l8.28125 4.140625c.976563-1.957031 2.835938-3.023437 4.792969-3.023437 2.09375 0 3.160156.976562 3.160156 2.558593 0 1.117188-.324218 2.371094-2.558594 4.464844l-11.765624 10.886719v6.746094h26.097656v-8.511719h-10.980469zm0 0"/></svg>